<svg fill="#ffffff" height="200px" width="200px" version="1.1" id="Layer_1" xmlns="http://www.w3.org/2000/svg" xmlns:xlink="http://www.w3.org/1999/xlink" viewBox="-66.56 -66.56 645.12 645.12" xml:space="preserve" stroke="#ffffff" stroke-width="26.112000000000002"><g id="SVGRepo_bgCarrier" stroke-width="0" transform="translate(7.680000000000007,7.680000000000007), scale(0.97)"><rect x="-66.56" y="-66.56" width="645.12" height="645.12" rx="19.3536" fill="#25792f" strokewidth="0"></rect></g><g id="SVGRepo_tracerCarrier" stroke-linecap="round" stroke-linejoin="round" stroke="#CCCCCC" stroke-width="1.024"></g><g id="SVGRepo_iconCarrier"> <g> <g> <g> <path d="M488.213,137.6l-112-133.76C374.187,1.387,371.2,0,368,0H54.4C36.16,0,21.333,14.72,21.333,32.96v446.08 C21.333,497.28,36.16,512,54.4,512h403.2c18.24,0,33.067-14.72,33.067-32.96V144.427 C490.667,141.973,489.813,139.52,488.213,137.6z M106.667,21.333h202.667v64H106.667V21.333z M469.333,479.04 c0,6.4-5.333,11.627-11.733,11.627H54.4c-6.4,0-11.733-5.227-11.733-11.627V32.96c0-6.4,5.333-11.627,11.733-11.627h30.933V96 c0,5.867,4.8,10.667,10.667,10.667h224c5.867,0,10.667-4.8,10.667-10.667V21.333h32.32l106.347,127.04V479.04z"></path> <path d="M256,178.453c-42.987,0-77.867,34.773-77.867,77.547c0,42.773,34.987,77.547,77.867,77.547s77.867-34.773,77.867-77.547 C333.867,213.227,298.88,178.453,256,178.453z M256,312.213c-31.04-0.107-56.107-25.493-56-56.533 c0.107-31.04,25.493-56.107,56.533-56c30.933,0.107,56,25.28,56,56.213C312.427,287.147,287.147,312.32,256,312.213z"></path> </g> </g> </g> </g></svg>